<svg width="20" height="21" viewBox="0 0 20 21" fill="none" xmlns="http://www.w3.org/2000/svg">
<path d="M16.6667 3.83334H3.33341C2.41294 3.83334 1.66675 4.57954 1.66675 5.50001V6.33334C1.66675 7.25382 2.41294 8.00001 3.33341 8.00001H16.6667C17.5872 8.00001 18.3334 7.25382 18.3334 6.33334V5.50001C18.3334 4.57954 17.5872 3.83334 16.6667 3.83334Z" stroke="#7D7D7D" stroke-width="2" stroke-linecap="round" stroke-linejoin="round"/>
<path d="M3.33325 8V15.5C3.33325 15.942 3.50885 16.366 3.82141 16.6785C4.13397 16.9911 4.55789 17.1667 4.99992 17.1667H14.9999C15.4419 17.1667 15.8659 16.9911 16.1784 16.6785C16.491 16.366 16.6666 15.942 16.6666 15.5V8" stroke="#7D7D7D" stroke-width="2" stroke-linecap="round" stroke-linejoin="round"/>
<path d="M8.33325 11.3333H11.6666" stroke="#7D7D7D" stroke-width="2" stroke-linecap="round" stroke-linejoin="round"/>
</svg>
