<svg width="18" height="19" viewBox="0 0 18 19" fill="none" xmlns="http://www.w3.org/2000/svg">
<g opacity="0.6">
<path d="M3 15.5H15C15.3978 15.5 15.7794 15.342 16.0607 15.0607C16.342 14.7794 16.5 14.3978 16.5 14V6.5C16.5 6.10218 16.342 5.72064 16.0607 5.43934C15.7794 5.15804 15.3978 5 15 5H9.0525C8.80544 4.99872 8.56252 4.93644 8.34532 4.81868C8.12813 4.70092 7.94338 4.53134 7.8075 4.325L7.1925 3.425C7.05662 3.21866 6.87187 3.04908 6.65468 2.93132C6.43748 2.81356 6.19456 2.75128 5.9475 2.75H3C2.60218 2.75 2.22064 2.90804 1.93934 3.18934C1.65804 3.47064 1.5 3.85218 1.5 4.25V14C1.5 14.825 2.175 15.5 3 15.5Z" stroke="#7D7D7D" stroke-width="2" stroke-linecap="round" stroke-linejoin="round"/>
</g>
</svg>
