<svg width="127" height="46" viewBox="0 0 127 46" fill="none" xmlns="http://www.w3.org/2000/svg">
<path d="M70.164 23.9558C66.0001 23.9558 63.272 20.8544 63.272 16.3171C63.272 11.8373 65.9426 8.6785 70.0778 8.6785C72.8059 8.6785 75.0171 10.1718 75.9073 12.6127V3.25104H77.1134V23.6399H75.9073V19.9354C75.1033 22.4338 72.8059 23.9558 70.164 23.9558ZM64.4781 16.3171C64.4781 20.1652 66.6893 22.8645 70.3076 22.8645C73.6387 22.8645 75.936 20.2226 75.936 16.3171C75.936 12.4117 73.6387 9.76973 70.2788 9.76973C66.6893 9.76973 64.4781 12.4691 64.4781 16.3171Z" fill="#3B4394"/>
<path d="M48.2074 23.6399V8.99435H49.4135V12.0383C50.4186 9.4251 52.6298 8.67847 54.5538 8.67847C58.3157 8.67847 60.211 11.263 60.211 14.8238V23.6399H59.0049V15.111C59.0049 11.6076 57.2244 9.79842 54.2379 9.79842C51.1939 9.79842 49.4135 11.9809 49.4135 15.1684V23.6399H48.2074Z" fill="#3B4394"/>
<path d="M42.767 23.6399V8.99441H43.9731V23.6399H42.767ZM42.4224 4.31359C42.4224 3.71054 42.8531 3.33722 43.3987 3.33722C43.9156 3.33722 44.3751 3.71054 44.3751 4.31359C44.3751 4.88792 43.9156 5.26124 43.3987 5.26124C42.8531 5.26124 42.4224 4.88792 42.4224 4.31359Z" fill="#3B4394"/>
<path d="M18.4905 23.6399V3.53818H20.07L28.3691 22.003L36.6682 3.53818H38.2476V23.6399H36.9841V5.8068L28.9721 23.6399H27.766L19.7254 5.74936V23.6399H18.4905Z" fill="#3B4394"/>
<path d="M13.3669 45.986C9.94203 45.986 7.49808 45.2379 6.03504 43.7416C4.572 42.2785 4.18962 39.818 4.88789 36.3599L6.08492 30.3747C6.48393 28.3132 6.2013 26.6839 5.23702 25.4868C4.27274 24.2898 2.52707 23.6913 0 23.6913V22.2947C2.52707 22.2615 4.27274 21.663 5.23702 20.4992C6.2013 19.3022 6.48393 17.6729 6.08492 15.6113L4.88789 9.57626C4.18962 6.11817 4.572 3.6576 6.03504 2.19456C7.49808 0.73152 9.94203 0 13.3669 0V1.39654C10.5073 1.42979 8.49561 2.0283 7.33183 3.19209C6.16805 4.35587 5.88541 6.4673 6.48393 9.52639L7.68096 15.6612C8.47898 19.618 6.96607 22.062 3.14221 22.993C6.99932 23.8575 8.51224 26.3015 7.68096 30.3248L6.48393 36.4596C5.88541 39.5187 6.16805 41.6302 7.33183 42.7939C8.49561 43.9577 10.5073 44.5562 13.3669 44.5895V45.986Z" fill="#3B4394"/>
<path d="M113.206 45.986V44.5895C116.099 44.5562 118.11 43.9577 119.241 42.7939C120.405 41.6302 120.687 39.5187 120.089 36.4596L118.892 30.3248C118.127 26.3015 119.64 23.8575 123.43 22.993C119.64 22.0952 118.127 19.6513 118.892 15.6612L120.089 9.52639C120.687 6.4673 120.405 4.35587 119.241 3.19209C118.11 2.0283 116.099 1.42979 113.206 1.39654V0C116.631 0 119.075 0.73152 120.538 2.19456C122.001 3.6576 122.4 6.11817 121.735 9.57626L120.488 15.6113C120.089 17.6729 120.371 19.3022 121.336 20.4992C122.3 21.663 124.046 22.2615 126.573 22.2947V23.6913C124.046 23.6913 122.3 24.2898 121.336 25.4868C120.371 26.6839 120.089 28.3132 120.488 30.3747L121.735 36.3599C122.4 39.818 122.001 42.2785 120.538 43.7416C119.075 45.2379 116.631 45.986 113.206 45.986Z" fill="#3B4394"/>
<path d="M103.892 44.2362C101.594 44.2362 99.1821 43.0014 98.0334 42.1112L98.8949 38.7226H99.1533C99.1821 42.1686 101.221 43.6619 103.892 43.6619C105.643 43.6619 107.567 42.9727 107.567 40.9625C107.567 36.9709 100.417 37.1432 100.417 32.8357C100.417 30.5097 102.37 29.2461 104.753 29.2461C107.366 29.2461 109.233 30.4235 110.037 31.1127L109.147 34.6161H108.888C109.204 31.6009 107.797 29.8205 104.724 29.8205C102.915 29.8205 101.278 30.6532 101.278 32.5773C101.278 36.3392 108.458 36.2817 108.458 40.5892C108.458 43.0589 106.074 44.2362 103.892 44.2362Z" fill="#3B4394"/>
<path d="M90.3124 44.2362C87.2684 44.2362 85.3157 42.3697 85.3157 38.8662C85.3157 34.6449 88.0438 29.2461 92.8395 29.2461C95.6537 29.2461 96.7736 31.0266 96.7736 32.6347C96.7736 36.7125 91.3175 38.378 86.4356 37.6027C86.3782 38.0047 86.3495 38.378 86.3495 38.7226C86.3495 41.824 88.0438 43.4035 90.5708 43.4035C92.179 43.4035 93.7871 42.6855 95.2804 40.2159L95.5388 40.3882C94.3902 42.8004 92.4949 44.2362 90.3124 44.2362ZM86.4931 37.2294C91.26 38.0334 95.7111 36.1094 95.7111 32.8644C95.7111 31.2276 94.9071 29.8205 92.6959 29.8205C89.1924 29.8205 87.01 33.9557 86.4931 37.2294Z" fill="#3B4394"/>
<path d="M78.9066 44.2362C77.6431 44.2362 77.0688 43.2886 77.557 41.3646L80.285 30.5671H78.16L78.2174 30.3086L81.6635 27.6093H81.9219L81.405 29.7056H84.6787L84.449 30.5671H81.204L78.4185 41.6804C78.16 42.7142 78.2462 43.5183 79.2512 43.5183C80.3425 43.5183 81.6635 42.1686 82.4101 40.4743L82.726 40.6179C81.6347 42.9727 80.3999 44.2362 78.9066 44.2362Z" fill="#3B4394"/>
<path d="M67.3011 44.2362C64.7166 44.2362 63.0223 41.9963 63.0223 38.7801C63.0223 33.8408 66.1237 29.2461 70.4887 29.2461C73.4752 29.2461 74.8249 31.5722 74.8249 34.53C74.8249 38.6365 72.183 44.2362 67.3011 44.2362ZM64.0561 39.0098C64.0561 42.2835 65.5781 43.6619 67.5596 43.6619C71.1492 43.6619 73.8198 38.8949 73.8198 34.128C73.8198 31.486 72.8147 29.8205 70.2877 29.8205C66.4109 29.8205 64.0561 34.6736 64.0561 39.0098Z" fill="#3B4394"/>
<path d="M57.4304 44.2362C56.1668 44.2362 55.5925 43.2886 56.0807 41.3646L58.0334 33.6685C58.5503 31.6583 57.8898 30.0215 55.8222 30.0215C52.8644 30.0215 49.9928 34.4151 48.4133 40.8477L47.6954 43.7768H46.7478L49.6769 31.8019C49.8779 30.9978 49.8779 29.964 48.9589 29.964C47.9826 29.964 47.0349 31.3137 46.2883 33.008L45.9724 32.8644C47.0349 30.5097 47.9539 29.2461 49.2174 29.2461C50.5384 29.2461 51.0553 30.2799 50.5384 32.2327L49.7056 35.4489H49.8492C51.6009 31.3712 53.6398 29.2461 56.1668 29.2461C58.177 29.2461 59.7277 30.682 58.9236 33.8408L56.9422 41.6805C56.6837 42.7143 56.7699 43.5183 57.6888 43.5183C58.6652 43.5183 59.6128 42.1686 60.3595 40.4744L60.6754 40.6179C59.6128 42.9727 58.6939 44.2362 57.4304 44.2362Z" fill="#3B4394"/>
</svg>
